<?xml version="1.0" encoding="utf-8"?>
<!-- Generator: Adobe Illustrator 15.1.0, SVG Export Plug-In . SVG Version: 6.00 Build 0)  -->
<!DOCTYPE svg PUBLIC "-//W3C//DTD SVG 1.1//EN" "http://www.w3.org/Graphics/SVG/1.1/DTD/svg11.dtd">
<svg version="1.1" id="Layer_1" xmlns="http://www.w3.org/2000/svg" xmlns:xlink="http://www.w3.org/1999/xlink" x="0px" y="0px"
	 width="255.121px" height="50px" viewBox="0 15.5 255.121 50" enable-background="new 0 15.5 255.121 50" xml:space="preserve">
<g id="Layer_2">
</g>
<g>
	<g>
		<path opacity="0.5" fill="#808184" enable-background="new    " d="M26.831,23.131h-0.012l-0.56,0.269l-0.113-0.518l0.777-0.36
			h0.57v2.941H26.83L26.831,23.131L26.831,23.131z"/>
		<path opacity="0.5" fill="#808184" enable-background="new    " d="M29.345,23.131h-0.009L28.772,23.4l-0.111-0.517l0.777-0.36
			h0.569v2.941h-0.664L29.345,23.131L29.345,23.131z"/>
		<path opacity="0.5" fill="#808184" enable-background="new    " d="M18.066,29.416c0,0.91-0.368,1.535-1.118,1.535
			c-0.763,0-1.098-0.685-1.103-1.517c0-0.854,0.363-1.528,1.125-1.528C17.757,27.906,18.066,28.61,18.066,29.416z M16.539,29.436
			c-0.005,0.676,0.159,0.996,0.425,0.996c0.269,0,0.415-0.334,0.415-1.005c0-0.652-0.143-0.997-0.418-0.997
			C16.707,28.429,16.535,28.748,16.539,29.436z"/>
		
			<linearGradient id="SVGID_1_" gradientUnits="userSpaceOnUse" x1="42.3833" y1="2064.8535" x2="44.5438" y2="2068.5554" gradientTransform="matrix(1 0 0 1 -23.3862 -2036.4844)">
			<stop  offset="0" style="stop-color:#808184;stop-opacity:0"/>
			<stop  offset="1" style="stop-color:#808184"/>
		</linearGradient>
		<path fill="url(#SVGID_1_)" d="M19.283,28.57h-0.008l-0.563,0.267l-0.111-0.518l0.778-0.362h0.571v2.944h-0.669L19.283,28.57
			L19.283,28.57z"/>
		
			<linearGradient id="SVGID_2_" gradientUnits="userSpaceOnUse" x1="44.3501" y1="2064.7471" x2="47.1178" y2="2067.5149" gradientTransform="matrix(1 0 0 1 -23.3862 -2036.4844)">
			<stop  offset="0" style="stop-color:#808184;stop-opacity:0"/>
			<stop  offset="0.6874" style="stop-color:#808184"/>
		</linearGradient>
		<path fill="url(#SVGID_2_)" d="M21.799,28.57H21.79l-0.563,0.267l-0.112-0.518l0.779-0.362h0.569v2.944h-0.666L21.799,28.57
			L21.799,28.57z"/>
		
			<linearGradient id="SVGID_3_" gradientUnits="userSpaceOnUse" x1="46.8599" y1="2064.126" x2="49.4412" y2="2068.595" gradientTransform="matrix(1 0 0 1 -23.3862 -2036.4844)">
			<stop  offset="0" style="stop-color:#808184;stop-opacity:0"/>
			<stop  offset="0.3998" style="stop-color:#808184"/>
		</linearGradient>
		<path fill="url(#SVGID_3_)" d="M25.611,29.416c0,0.91-0.367,1.535-1.118,1.535c-0.763,0-1.097-0.685-1.104-1.517
			c0-0.854,0.362-1.528,1.125-1.528C25.303,27.906,25.611,28.61,25.611,29.416z M24.084,29.436
			c-0.004,0.676,0.159,0.996,0.428,0.996c0.267,0,0.409-0.334,0.409-1.005c0-0.652-0.14-0.997-0.416-0.997
			C24.251,28.429,24.08,28.748,24.084,29.436z"/>
		
			<linearGradient id="SVGID_4_" gradientUnits="userSpaceOnUse" x1="49.0542" y1="2064.249" x2="52.0424" y2="2067.9241" gradientTransform="matrix(1 0 0 1 -23.3862 -2036.4844)">
			<stop  offset="0" style="stop-color:#808184;stop-opacity:0"/>
			<stop  offset="0.3998" style="stop-color:#808184"/>
		</linearGradient>
		<path fill="url(#SVGID_4_)" d="M28.124,29.416c0,0.91-0.366,1.535-1.117,1.535c-0.761,0-1.097-0.685-1.102-1.517
			c0-0.854,0.362-1.528,1.123-1.528C27.818,27.906,28.124,28.61,28.124,29.416z M26.6,29.436c-0.004,0.676,0.158,0.996,0.425,0.996
			c0.268,0,0.415-0.334,0.415-1.005c0-0.652-0.142-0.997-0.42-0.997C26.766,28.429,26.596,28.748,26.6,29.436z"/>
		
			<linearGradient id="SVGID_5_" gradientUnits="userSpaceOnUse" x1="52.7212" y1="2063.3359" x2="52.7212" y2="2068.396" gradientTransform="matrix(1 0 0 1 -23.3862 -2036.4844)">
			<stop  offset="0" style="stop-color:#808184;stop-opacity:0"/>
			<stop  offset="0.5073" style="stop-color:#808184"/>
		</linearGradient>
		<path fill="url(#SVGID_5_)" d="M29.345,28.57h-0.009l-0.563,0.267l-0.111-0.518l0.777-0.362h0.569v2.944h-0.664L29.345,28.57
			L29.345,28.57z"/>
		
			<linearGradient id="SVGID_6_" gradientUnits="userSpaceOnUse" x1="55.2378" y1="2063.7871" x2="55.2378" y2="2068.6479" gradientTransform="matrix(1 0 0 1 -23.3862 -2036.4844)">
			<stop  offset="0" style="stop-color:#808184;stop-opacity:0"/>
			<stop  offset="0.5223" style="stop-color:#808184"/>
		</linearGradient>
		<path fill="url(#SVGID_6_)" d="M31.86,28.57h-0.011l-0.563,0.267l-0.108-0.517l0.777-0.362h0.57v2.944h-0.664L31.86,28.57
			L31.86,28.57z"/>
		
			<linearGradient id="SVGID_7_" gradientUnits="userSpaceOnUse" x1="57.9438" y1="2063.8711" x2="57.9438" y2="2067.3442" gradientTransform="matrix(1 0 0 1 -23.3862 -2036.4844)">
			<stop  offset="0" style="stop-color:#808184;stop-opacity:0"/>
			<stop  offset="0.5353" style="stop-color:#808184"/>
		</linearGradient>
		<path fill="url(#SVGID_7_)" d="M35.668,29.416c0,0.91-0.366,1.535-1.118,1.535c-0.762,0-1.095-0.685-1.102-1.517
			c0-0.854,0.365-1.528,1.123-1.528C35.363,27.906,35.668,28.61,35.668,29.416z M34.145,29.436
			c-0.003,0.676,0.159,0.996,0.426,0.996c0.269,0,0.411-0.334,0.411-1.005c0-0.652-0.14-0.997-0.415-0.997
			C34.313,28.429,34.14,28.748,34.145,29.436z"/>
		
			<linearGradient id="SVGID_8_" gradientUnits="userSpaceOnUse" x1="62.0127" y1="2065.0488" x2="57.7775" y2="2068.0835" gradientTransform="matrix(1 0 0 1 -23.3862 -2036.4844)">
			<stop  offset="0" style="stop-color:#808184;stop-opacity:0"/>
			<stop  offset="0.5442" style="stop-color:#808184"/>
		</linearGradient>
		<path fill="url(#SVGID_8_)" d="M38.524,29.416c0,0.91-0.368,1.535-1.12,1.535c-0.76,0-1.097-0.685-1.101-1.517
			c0-0.854,0.361-1.528,1.123-1.528C38.215,27.906,38.524,28.61,38.524,29.416z M36.999,29.436
			c-0.007,0.676,0.157,0.996,0.426,0.996c0.268,0,0.413-0.334,0.413-1.005c0-0.652-0.142-0.997-0.416-0.997
			C37.165,28.429,36.992,28.748,36.999,29.436z"/>
		
			<linearGradient id="SVGID_9_" gradientUnits="userSpaceOnUse" x1="63.4937" y1="2065.793" x2="58.6498" y2="2067.5916" gradientTransform="matrix(1 0 0 1 -23.3862 -2036.4844)">
			<stop  offset="0" style="stop-color:#808184;stop-opacity:0"/>
			<stop  offset="0.7648" style="stop-color:#808184"/>
		</linearGradient>
		<path fill="url(#SVGID_9_)" d="M39.404,28.57h-0.01l-0.563,0.267l-0.112-0.518l0.777-0.362h0.571v2.944h-0.666L39.404,28.57
			L39.404,28.57z"/>
		
			<linearGradient id="SVGID_10_" gradientUnits="userSpaceOnUse" x1="38.4302" y1="2071.6455" x2="40.1937" y2="2072.5146" gradientTransform="matrix(1 0 0 1 -23.3862 -2036.4844)">
			<stop  offset="0" style="stop-color:#808184;stop-opacity:0"/>
			<stop  offset="1" style="stop-color:#808184"/>
		</linearGradient>
		<path fill="url(#SVGID_10_)" d="M15.553,34.854c0,0.91-0.369,1.535-1.119,1.535c-0.764,0-1.098-0.687-1.104-1.52
			c0-0.851,0.363-1.525,1.125-1.525C15.243,33.345,15.553,34.045,15.553,34.854z M14.025,34.871
			c-0.005,0.676,0.159,0.997,0.426,0.997c0.269,0,0.412-0.336,0.412-1.005c0-0.653-0.141-0.997-0.417-0.997
			C14.192,33.865,14.021,34.188,14.025,34.871z"/>
		
			<linearGradient id="SVGID_11_" gradientUnits="userSpaceOnUse" x1="39.4092" y1="2070.2705" x2="40.3128" y2="2071.1741" gradientTransform="matrix(1 0 0 1 -23.3862 -2036.4844)">
			<stop  offset="0" style="stop-color:#808184;stop-opacity:0"/>
			<stop  offset="1" style="stop-color:#808184"/>
		</linearGradient>
		<path fill="url(#SVGID_11_)" d="M16.772,34.005h-0.01l-0.563,0.269l-0.112-0.518l0.778-0.361h0.57v2.942h-0.664L16.772,34.005
			L16.772,34.005z"/>
		<path fill="#808184" d="M20.581,34.854c0,0.91-0.367,1.535-1.119,1.535c-0.761,0-1.096-0.687-1.102-1.52
			c0-0.851,0.364-1.525,1.124-1.525C20.274,33.345,20.581,34.045,20.581,34.854z M19.055,34.871
			c-0.005,0.676,0.158,0.997,0.428,0.997c0.269,0,0.411-0.336,0.411-1.005c0-0.653-0.142-0.997-0.417-0.997
			C19.223,33.865,19.05,34.188,19.055,34.871z"/>
		<path fill="#808184" d="M21.799,34.005H21.79l-0.563,0.269l-0.112-0.518l0.779-0.361h0.569v2.942h-0.666L21.799,34.005
			L21.799,34.005z"/>
		<path fill="#808184" d="M25.611,34.854c0,0.91-0.367,1.535-1.118,1.535c-0.763,0-1.097-0.687-1.104-1.52
			c0-0.851,0.362-1.525,1.125-1.525C25.303,33.345,25.611,34.045,25.611,34.854z M24.084,34.871
			c-0.005,0.676,0.158,0.997,0.428,0.997c0.267,0,0.409-0.336,0.409-1.005c0-0.653-0.14-0.997-0.416-0.997
			C24.251,33.865,24.08,34.188,24.084,34.871z"/>
		<path fill="#808184" d="M26.831,34.005h-0.012l-0.561,0.269l-0.113-0.518l0.777-0.361h0.57v2.942h-0.663L26.831,34.005
			L26.831,34.005z"/>
		<path fill="#808184" d="M30.641,34.854c0,0.91-0.366,1.535-1.118,1.535c-0.764,0-1.096-0.687-1.101-1.52
			c0-0.851,0.362-1.525,1.121-1.525C30.33,33.345,30.641,34.045,30.641,34.854z M29.114,34.871
			c-0.005,0.676,0.159,0.997,0.426,0.997c0.269,0,0.412-0.336,0.412-1.005c0-0.653-0.14-0.997-0.415-0.997
			C29.28,33.865,29.109,34.188,29.114,34.871z"/>
		<path fill="#808184" d="M31.86,34.005h-0.011l-0.563,0.269l-0.109-0.518l0.777-0.361h0.569v2.942h-0.664L31.86,34.005
			L31.86,34.005z"/>
		<path fill="#808184" d="M35.668,34.854c0,0.91-0.366,1.535-1.118,1.535c-0.762,0-1.095-0.687-1.102-1.52
			c0-0.851,0.365-1.525,1.123-1.525C35.363,33.345,35.668,34.045,35.668,34.854z M34.145,34.871
			c-0.003,0.676,0.159,0.997,0.426,0.997c0.269,0,0.411-0.336,0.411-1.005c0-0.653-0.14-0.997-0.415-0.997
			C34.313,33.865,34.14,34.188,34.145,34.871z"/>
		<path fill="#808184" d="M36.889,34.005h-0.01l-0.563,0.269l-0.111-0.518l0.778-0.361h0.571v2.942h-0.668L36.889,34.005
			L36.889,34.005z"/>
		<path fill="#808184" d="M40.7,34.854c0,0.91-0.365,1.535-1.118,1.535c-0.762,0-1.097-0.687-1.102-1.52
			c0-0.851,0.361-1.525,1.123-1.525C40.392,33.345,40.7,34.045,40.7,34.854z M39.171,34.871c-0.003,0.676,0.159,0.997,0.429,0.997
			c0.267,0,0.411-0.336,0.411-1.005c0-0.653-0.143-0.997-0.417-0.997C39.341,33.865,39.169,34.188,39.171,34.871z"/>
		
			<linearGradient id="SVGID_12_" gradientUnits="userSpaceOnUse" x1="66.4351" y1="2071.2168" x2="61.1151" y2="2072.1643" gradientTransform="matrix(1 0 0 1 -23.3862 -2036.4844)">
			<stop  offset="0" style="stop-color:#808184;stop-opacity:0"/>
			<stop  offset="0.7648" style="stop-color:#808184"/>
		</linearGradient>
		<path fill="url(#SVGID_12_)" d="M41.916,34.005h-0.007l-0.563,0.269l-0.113-0.518l0.779-0.361h0.57v2.942h-0.668L41.916,34.005
			L41.916,34.005z"/>
		
			<linearGradient id="SVGID_13_" gradientUnits="userSpaceOnUse" x1="36.957" y1="2076.7891" x2="41.3703" y2="2076.7891" gradientTransform="matrix(1 0 0 1 -23.3862 -2036.4844)">
			<stop  offset="0" style="stop-color:#808184;stop-opacity:0"/>
			<stop  offset="1" style="stop-color:#808184"/>
		</linearGradient>
		<path fill="url(#SVGID_13_)" d="M14.255,39.445h-0.007l-0.563,0.267l-0.114-0.516l0.779-0.364h0.571v2.945h-0.668L14.255,39.445
			L14.255,39.445z"/>
		<path fill="#808184" d="M16.772,39.445h-0.01l-0.563,0.267l-0.112-0.516l0.778-0.364h0.57v2.945h-0.664L16.772,39.445
			L16.772,39.445z"/>
		<path fill="#808184" d="M20.581,40.29c0,0.913-0.367,1.537-1.119,1.537c-0.761,0-1.096-0.687-1.102-1.518
			c0-0.852,0.364-1.525,1.124-1.525C20.274,38.783,20.581,39.485,20.581,40.29z M19.055,40.31c-0.005,0.674,0.158,0.997,0.428,0.997
			c0.269,0,0.411-0.333,0.411-1.006c0-0.65-0.142-0.996-0.417-0.996C19.223,39.303,19.05,39.624,19.055,40.31z"/>
		<path fill="#808184" d="M23.097,40.29c0,0.913-0.367,1.537-1.12,1.537c-0.76,0-1.095-0.687-1.101-1.518
			c0-0.852,0.361-1.525,1.124-1.525C22.787,38.783,23.097,39.485,23.097,40.29z M21.569,40.31c-0.003,0.674,0.159,0.997,0.429,0.997
			s0.412-0.333,0.412-1.006c0-0.65-0.142-0.996-0.416-0.996C21.737,39.303,21.564,39.624,21.569,40.31z"/>
		<path fill="#808184" d="M24.315,39.445h-0.008l-0.563,0.267l-0.113-0.516l0.78-0.364h0.569v2.945h-0.666L24.315,39.445
			L24.315,39.445z"/>
		<path fill="#808184" d="M26.831,39.445h-0.012l-0.561,0.267l-0.113-0.516l0.777-0.364h0.57v2.945h-0.663L26.831,39.445
			L26.831,39.445z"/>
		<path fill="#808184" d="M30.641,40.29c0,0.913-0.366,1.537-1.118,1.537c-0.764,0-1.096-0.687-1.101-1.518
			c0-0.852,0.362-1.525,1.121-1.525C30.33,38.783,30.641,39.485,30.641,40.29z M29.114,40.31c-0.005,0.674,0.159,0.997,0.426,0.997
			c0.269,0,0.412-0.333,0.412-1.006c0-0.65-0.14-0.996-0.415-0.996C29.28,39.303,29.109,39.624,29.114,40.31z"/>
		<path fill="#808184" d="M33.154,40.29c0,0.913-0.366,1.537-1.116,1.537c-0.764,0-1.097-0.687-1.102-1.518
			c0-0.852,0.362-1.525,1.122-1.525C32.846,38.783,33.154,39.485,33.154,40.29z M31.628,40.31c-0.004,0.674,0.158,0.997,0.427,0.997
			c0.267,0,0.414-0.333,0.414-1.006c0-0.65-0.144-0.996-0.42-0.996C31.797,39.303,31.624,39.624,31.628,40.31z"/>
		<path fill="#808184" d="M34.374,39.445h-0.008l-0.563,0.267l-0.114-0.516l0.78-0.364h0.569v2.945h-0.667L34.374,39.445
			L34.374,39.445z"/>
		<path fill="#808184" d="M36.889,39.445h-0.01l-0.563,0.267l-0.111-0.516l0.778-0.364h0.571v2.945h-0.668L36.889,39.445
			L36.889,39.445z"/>
		<path fill="#808184" d="M40.7,40.29c0,0.913-0.365,1.537-1.118,1.537c-0.762,0-1.097-0.687-1.102-1.518
			c0-0.852,0.361-1.525,1.123-1.525C40.392,38.783,40.7,39.485,40.7,40.29z M39.171,40.31c-0.003,0.674,0.159,0.997,0.429,0.997
			c0.267,0,0.411-0.333,0.411-1.006c0-0.65-0.143-0.996-0.417-0.996C39.341,39.303,39.169,39.624,39.171,40.31z"/>
		
			<linearGradient id="SVGID_14_" gradientUnits="userSpaceOnUse" x1="66.7856" y1="2076.79" x2="62.7486" y2="2076.79" gradientTransform="matrix(1 0 0 1 -23.3862 -2036.4844)">
			<stop  offset="0" style="stop-color:#808184;stop-opacity:0"/>
			<stop  offset="0.7648" style="stop-color:#808184"/>
		</linearGradient>
		<path fill="url(#SVGID_14_)" d="M43.214,40.29c0,0.913-0.365,1.537-1.117,1.537c-0.761,0-1.098-0.687-1.102-1.518
			c0-0.852,0.36-1.525,1.124-1.525C42.908,38.783,43.214,39.485,43.214,40.29z M41.688,40.31c-0.005,0.674,0.159,0.997,0.425,0.997
			c0.269,0,0.413-0.333,0.413-1.006c0-0.65-0.14-0.996-0.415-0.996C41.855,39.303,41.684,39.624,41.688,40.31z"/>
		<path opacity="0.5" fill="#808184" enable-background="new    " d="M44.433,39.445h-0.01l-0.562,0.267l-0.114-0.516l0.779-0.364
			h0.57v2.945h-0.665L44.433,39.445L44.433,39.445z"/>
		<path opacity="0.5" fill="#808184" enable-background="new    " d="M14.255,44.887h-0.007l-0.563,0.266l-0.114-0.517l0.779-0.362
			h0.571v2.941h-0.668L14.255,44.887L14.255,44.887z"/>
		
			<linearGradient id="SVGID_15_" gradientUnits="userSpaceOnUse" x1="39.459" y1="2083.0986" x2="41.8697" y2="2080.688" gradientTransform="matrix(1 0 0 1 -23.3862 -2036.4844)">
			<stop  offset="0" style="stop-color:#808184;stop-opacity:0"/>
			<stop  offset="0.728" style="stop-color:#808184"/>
		</linearGradient>
		<path fill="url(#SVGID_15_)" d="M16.772,44.887h-0.01l-0.563,0.266l-0.112-0.517l0.778-0.362h0.57v2.941h-0.664L16.772,44.887
			L16.772,44.887z"/>
		<path fill="#808184" d="M19.283,44.887h-0.008l-0.563,0.266l-0.111-0.517l0.778-0.362h0.571v2.941h-0.669L19.283,44.887
			L19.283,44.887z"/>
		<path fill="#808184" d="M21.799,44.887H21.79l-0.563,0.266l-0.112-0.517l0.779-0.362h0.569v2.941h-0.666L21.799,44.887
			L21.799,44.887z"/>
		<path fill="#808184" d="M24.315,44.887h-0.008l-0.563,0.266l-0.113-0.517l0.78-0.362h0.569v2.941h-0.666L24.315,44.887
			L24.315,44.887z"/>
		<path fill="#808184" d="M26.831,44.887h-0.012l-0.561,0.266l-0.113-0.517l0.777-0.362h0.57v2.941h-0.663L26.831,44.887
			L26.831,44.887z"/>
		<path fill="#808184" d="M29.345,44.887h-0.009l-0.563,0.266l-0.111-0.517l0.777-0.362h0.569v2.941h-0.664L29.345,44.887
			L29.345,44.887z"/>
		<path fill="#808184" d="M31.86,44.887h-0.011l-0.563,0.266l-0.109-0.517l0.777-0.362h0.569v2.941h-0.664L31.86,44.887
			L31.86,44.887z"/>
		<path fill="#808184" d="M34.374,44.887h-0.008l-0.563,0.266l-0.114-0.517l0.78-0.362h0.569v2.941h-0.667L34.374,44.887
			L34.374,44.887z"/>
		<path fill="#808184" d="M36.889,44.887h-0.01l-0.563,0.266l-0.111-0.517l0.778-0.362h0.571v2.941h-0.668L36.889,44.887
			L36.889,44.887z"/>
		<path fill="#808184" d="M39.404,44.887h-0.01l-0.563,0.266l-0.112-0.517l0.777-0.362h0.571v2.941h-0.666L39.404,44.887
			L39.404,44.887z"/>
		
			<linearGradient id="SVGID_16_" gradientUnits="userSpaceOnUse" x1="66.5142" y1="2083.1084" x2="62.7855" y2="2079.3799" gradientTransform="matrix(1 0 0 1 -23.3862 -2036.4844)">
			<stop  offset="0" style="stop-color:#808184;stop-opacity:0"/>
			<stop  offset="0.7648" style="stop-color:#808184"/>
		</linearGradient>
		<path fill="url(#SVGID_16_)" d="M41.916,44.887h-0.007l-0.563,0.266l-0.113-0.517l0.779-0.362h0.57v2.941h-0.668L41.916,44.887
			L41.916,44.887z"/>
		
			<linearGradient id="SVGID_17_" gradientUnits="userSpaceOnUse" x1="42.4175" y1="2088.0918" x2="44.6818" y2="2085.8274" gradientTransform="matrix(1 0 0 1 -23.3862 -2036.4844)">
			<stop  offset="0" style="stop-color:#808184;stop-opacity:0"/>
			<stop  offset="0.8077" style="stop-color:#808184"/>
		</linearGradient>
		<path fill="url(#SVGID_17_)" d="M19.283,50.32h-0.008l-0.563,0.268l-0.111-0.516l0.778-0.363h0.571v2.943h-0.669L19.283,50.32
			L19.283,50.32z"/>
		
			<linearGradient id="SVGID_18_" gradientUnits="userSpaceOnUse" x1="44.4824" y1="2088.543" x2="47.1311" y2="2085.8945" gradientTransform="matrix(1 0 0 1 -23.3862 -2036.4844)">
			<stop  offset="0" style="stop-color:#808184;stop-opacity:0"/>
			<stop  offset="0.8644" style="stop-color:#808184"/>
		</linearGradient>
		<path fill="url(#SVGID_18_)" d="M21.799,50.32H21.79l-0.563,0.268l-0.11-0.516l0.778-0.363h0.569v2.943h-0.667L21.799,50.32
			L21.799,50.32z"/>
		
			<linearGradient id="SVGID_19_" gradientUnits="userSpaceOnUse" x1="47.8862" y1="2089.5273" x2="47.8862" y2="2082.3738" gradientTransform="matrix(1 0 0 1 -23.3862 -2036.4844)">
			<stop  offset="0" style="stop-color:#808184;stop-opacity:0"/>
			<stop  offset="0.4028" style="stop-color:#808184"/>
		</linearGradient>
		<path fill="url(#SVGID_19_)" d="M25.611,51.167c0,0.911-0.367,1.535-1.118,1.535c-0.763,0-1.097-0.685-1.104-1.521
			c0-0.852,0.362-1.521,1.125-1.521C25.303,49.66,25.611,50.363,25.611,51.167z M24.084,51.186c-0.005,0.678,0.158,1,0.428,1
			c0.267,0,0.409-0.336,0.409-1.006c0-0.652-0.14-0.996-0.416-0.996C24.251,50.184,24.08,50.5,24.084,51.186z"/>
		
			<linearGradient id="SVGID_20_" gradientUnits="userSpaceOnUse" x1="50.4009" y1="2089.3867" x2="50.4009" y2="2083.0273" gradientTransform="matrix(1 0 0 1 -23.3862 -2036.4844)">
			<stop  offset="0" style="stop-color:#808184;stop-opacity:0"/>
			<stop  offset="0.4486" style="stop-color:#808184"/>
		</linearGradient>
		<path fill="url(#SVGID_20_)" d="M28.124,51.167c0,0.911-0.366,1.535-1.117,1.535c-0.761,0-1.097-0.685-1.102-1.521
			c0-0.852,0.362-1.521,1.123-1.521C27.818,49.66,28.124,50.363,28.124,51.167z M26.6,51.186c-0.004,0.678,0.158,1,0.425,1
			c0.268,0,0.415-0.336,0.415-1.006c0-0.652-0.142-0.996-0.42-0.996C26.766,50.184,26.596,50.5,26.6,51.186z"/>
		
			<linearGradient id="SVGID_21_" gradientUnits="userSpaceOnUse" x1="52.7212" y1="2089.415" x2="52.7212" y2="2084.2041" gradientTransform="matrix(1 0 0 1 -23.3862 -2036.4844)">
			<stop  offset="0" style="stop-color:#808184;stop-opacity:0"/>
			<stop  offset="0.4066" style="stop-color:#808184"/>
		</linearGradient>
		<path fill="url(#SVGID_21_)" d="M29.345,50.32h-0.009l-0.563,0.268l-0.111-0.516l0.777-0.363h0.569v2.943h-0.664L29.345,50.32
			L29.345,50.32z"/>
		
			<linearGradient id="SVGID_22_" gradientUnits="userSpaceOnUse" x1="55.2358" y1="2089.585" x2="55.2358" y2="2083.7595" gradientTransform="matrix(1 0 0 1 -23.3862 -2036.4844)">
			<stop  offset="0" style="stop-color:#808184;stop-opacity:0"/>
			<stop  offset="0.4172" style="stop-color:#808184"/>
		</linearGradient>
		<path fill="url(#SVGID_22_)" d="M31.86,50.32h-0.011l-0.563,0.268l-0.109-0.516l0.777-0.363h0.569v2.943h-0.664L31.86,50.32
			L31.86,50.32z"/>
		
			<linearGradient id="SVGID_23_" gradientUnits="userSpaceOnUse" x1="59.1216" y1="2088.8359" x2="56.2011" y2="2085.9155" gradientTransform="matrix(1 0 0 1 -23.3862 -2036.4844)">
			<stop  offset="0" style="stop-color:#808184;stop-opacity:0"/>
			<stop  offset="0.8644" style="stop-color:#808184"/>
		</linearGradient>
		<path fill="url(#SVGID_23_)" d="M35.668,51.167c0,0.911-0.366,1.535-1.118,1.535c-0.762,0-1.095-0.685-1.102-1.521
			c0-0.852,0.365-1.521,1.123-1.521C35.363,49.66,35.668,50.363,35.668,51.167z M34.145,51.186c-0.003,0.678,0.159,1,0.426,1
			c0.269,0,0.411-0.336,0.411-1.006c0-0.652-0.14-0.996-0.415-0.996C34.313,50.184,34.14,50.5,34.145,51.186z"/>
		<path fill="#0071A5" d="M29.106,55.264c-7.985,0-15.102-6.703-15.102-15.104c0-8.396,6.807-15.104,15.102-15.104
			c8.563,0.136,15.104,6.865,15.104,15.104c0,2.944-0.845,5.68-2.293,7.993l3.951,3.925c2.445-3.446,4.168-7.358,4.168-11.917
			c0.001-11.628-9.371-21.058-20.929-21.058c-11.56,0.001-20.93,9.429-20.93,21.058s9.37,21.056,20.931,21.056
			c3.854,0,7.166-1.146,10.268-2.971l-4.104-4.304C33.382,54.788,31.296,55.264,29.106,55.264z"/>
		<path fill="#00ADEE" d="M48.533,57.311c0.942,0.988,0.795,2.666-0.337,3.736l0,0c-1.128,1.072-2.806,1.143-3.751,0.146
			L33.711,49.907c-0.94-0.99-0.794-2.664,0.336-3.737l0,0c1.13-1.07,2.808-1.141,3.751-0.146L48.533,57.311z"/>
		<g>
			<g>
				<path fill="#00ADEE" d="M27.732,29.249c0,0,15.196-2.627,14.271,13.47C42,42.719,39.498,30.546,27.732,29.249z"/>
			</g>
		</g>
	</g>
	<g>
		<path fill="#00ADEE" d="M57.278,29.788v11.741c0,3.414,1.865,6.006,5.414,6.006c3.411,0,5.731-2.865,5.731-6.278V29.788h5.508
			v22.479h-4.96l-0.363-3.047c-2.32,2.271-4.459,3.364-7.601,3.364c-5.369,0-9.282-4.049-9.282-11.012V29.788H57.278z"/>
		<path fill="#00ADEE" d="M96.642,29.788h5.322v22.437h-5.231l-0.272-3.273c-1.273,2.639-4.776,3.912-7.279,3.955
			c-6.646,0.048-11.56-4.047-11.56-11.919c0-7.735,5.142-11.785,11.693-11.739c3.002,0,5.87,1.411,7.146,3.642L96.642,29.788z
			 M83.171,40.983c0,4.281,2.958,6.826,6.644,6.826c8.735,0,8.735-13.604,0-13.604C86.129,34.203,83.171,36.705,83.171,40.983z"/>
		<path fill="#00ADEE" d="M129.95,20.414v31.809h-5.188l-0.364-3.099c-1.729,2.688-4.506,3.597-7.234,3.597
			c-6.599,0-11.56-4.369-11.56-11.74c0-7.735,4.869-11.739,11.423-11.739c2.365,0,6.051,1.274,7.368,3.594V20.414H129.95z
			 M111.158,40.983c0,3.916,2.819,6.598,6.37,6.598c3.505,0,6.506-2.549,6.506-6.598c0-3.914-3.005-6.552-6.506-6.552
			C113.979,34.432,111.158,36.933,111.158,40.983z"/>
		<path fill="#00ADEE" d="M139.917,29.788l0.408,2.594c1.729-2.772,4.053-3.184,6.328-3.184c2.313,0,4.547,0.909,5.774,2.138
			l-2.506,4.823c-1.142-0.955-2.188-1.457-4.004-1.457c-2.912,0-5.601,1.547-5.601,5.688v11.833h-5.553V29.788H139.917z"/>
		<path fill="#00ADEE" d="M172.313,29.788h5.324v22.437h-5.232l-0.271-3.273c-1.274,2.639-4.778,3.912-7.282,3.955
			c-6.646,0.048-11.558-4.047-11.558-11.919c0-7.735,5.144-11.785,11.69-11.739c3.006,0,5.871,1.411,7.146,3.642L172.313,29.788z
			 M158.849,40.983c0,4.281,2.959,6.826,6.642,6.826c8.735,0,8.735-13.604,0-13.604C161.808,34.203,158.849,36.705,158.849,40.983z"
			/>
		<path fill="#00ADEE" d="M189.2,23.463v6.37h6.188v4.777h-6.232v9.695c0,2.139,1.188,3.186,2.912,3.186
			c0.865,0,1.865-0.273,2.688-0.684l1.548,4.729c-1.597,0.635-2.906,0.906-4.599,0.957c-4.869,0.185-8.056-2.592-8.056-8.188v-9.696
			h-4.186v-4.776h4.186v-5.777L189.2,23.463z"/>
		<path fill="#00ADEE" d="M222.644,29.788l-13.697,31.81h-6.096l4.188-9.736l-8.965-22.07h6.456l3.414,9.694l2.142,6.326l2.32-6.188
			l4.098-9.828L222.644,29.788L222.644,29.788z"/>
		<path fill="#00ADEE" d="M239.845,29.788h6.643v0.183l-7.368,10.876l7.825,11.237v0.141H240.3l-4.865-7.511l-4.873,7.511h-6.643
			v-0.14l7.828-11.237l-7.373-10.876v-0.183h6.645l4.416,7.602L239.845,29.788z"/>
	</g>
	<g>
		<path fill="#231F20" d="M55.067,61.598h-1.189v-6.263h-2.143v-1.021h5.475v1.021h-2.143V61.598L55.067,61.598z"/>
		<path fill="#231F20" d="M65.597,61.598h-1.196v-3.283h-3.356v3.283h-1.19v-7.281h1.19v2.979h3.356v-2.979h1.195L65.597,61.598
			L65.597,61.598z"/>
		<path fill="#231F20" d="M73.164,61.598h-4.119v-7.281h4.119v1.006h-2.93v1.982h2.745v0.994h-2.745v2.286h2.93V61.598z"/>
		<path fill="#231F20" d="M85.268,56.518c0,0.76-0.249,1.342-0.747,1.748c-0.498,0.403-1.207,0.605-2.126,0.605h-0.757v2.727h-1.19
			v-7.281h2.098c0.91,0,1.591,0.187,2.044,0.559C85.043,55.247,85.268,55.792,85.268,56.518z M81.637,57.87h0.633
			c0.611,0,1.06-0.104,1.345-0.318c0.286-0.213,0.429-0.545,0.429-0.995c0-0.418-0.128-0.729-0.383-0.938
			c-0.257-0.206-0.654-0.311-1.195-0.311h-0.827L81.637,57.87L81.637,57.87z"/>
		<path fill="#231F20" d="M94.717,57.943c0,1.188-0.296,2.107-0.889,2.766c-0.593,0.658-1.433,0.984-2.519,0.984
			c-1.099,0-1.942-0.324-2.532-0.979c-0.589-0.65-0.884-1.579-0.884-2.779c0-1.201,0.296-2.125,0.89-2.771
			c0.593-0.646,1.438-0.966,2.537-0.966c1.083,0,1.919,0.325,2.511,0.979C94.422,55.835,94.717,56.757,94.717,57.943z
			 M89.159,57.943c0,0.896,0.181,1.576,0.543,2.039c0.361,0.463,0.897,0.695,1.607,0.695c0.708,0,1.241-0.229,1.603-0.688
			c0.359-0.458,0.54-1.143,0.54-2.049c0-0.895-0.179-1.568-0.535-2.03c-0.357-0.462-0.89-0.69-1.597-0.69
			c-0.714,0-1.252,0.229-1.615,0.69C89.341,56.374,89.159,57.052,89.159,57.943z"/>
		<path fill="#231F20" d="M104.528,61.598h-1.295l-1.234-4.345c-0.054-0.188-0.12-0.463-0.199-0.817
			c-0.08-0.356-0.128-0.604-0.146-0.746c-0.032,0.213-0.087,0.487-0.161,0.828c-0.075,0.338-0.138,0.59-0.188,0.756l-1.205,4.324
			h-1.295l-0.941-3.646l-0.956-3.639h1.215l1.041,4.244c0.163,0.68,0.278,1.28,0.349,1.803c0.037-0.28,0.091-0.598,0.165-0.944
			c0.073-0.351,0.139-0.631,0.199-0.849l1.185-4.254h1.182l1.215,4.273c0.115,0.395,0.238,0.984,0.369,1.771
			c0.05-0.477,0.169-1.078,0.358-1.813l1.036-4.231h1.206L104.528,61.598z"/>
		<path fill="#231F20" d="M113.106,61.598h-4.119v-7.281h4.119v1.006h-2.929v1.982h2.745v0.994h-2.745v2.286h2.929V61.598z"/>
		<path fill="#231F20" d="M117.4,58.688v2.908h-1.189v-7.281h2.057c0.939,0,1.635,0.178,2.087,0.526
			c0.452,0.354,0.677,0.886,0.677,1.595c0,0.907-0.471,1.553-1.414,1.938l2.057,3.225h-1.354l-1.742-2.908h-1.177v-0.002H117.4z
			 M117.4,57.701h0.827c0.554,0,0.956-0.104,1.205-0.311s0.374-0.513,0.374-0.916c0-0.412-0.134-0.707-0.403-0.889
			c-0.269-0.179-0.674-0.27-1.215-0.27H117.4V57.701z"/>
		<path fill="#231F20" d="M134.903,57.943c0,1.188-0.295,2.107-0.889,2.766c-0.595,0.658-1.435,0.984-2.521,0.984
			c-1.101,0-1.942-0.324-2.531-0.979c-0.59-0.65-0.885-1.579-0.885-2.779c0-1.201,0.297-2.125,0.889-2.771
			c0.597-0.646,1.438-0.969,2.538-0.969c1.083,0,1.919,0.326,2.514,0.98C134.608,55.835,134.903,56.757,134.903,57.943z
			 M129.347,57.943c0,0.896,0.182,1.576,0.543,2.039s0.897,0.695,1.607,0.695c0.708,0,1.242-0.229,1.602-0.688
			c0.36-0.458,0.541-1.143,0.541-2.049c0-0.895-0.179-1.568-0.535-2.03c-0.354-0.462-0.89-0.69-1.597-0.69
			c-0.714,0-1.253,0.229-1.616,0.69S129.347,57.052,129.347,57.943z"/>
		<path fill="#231F20" d="M139.179,61.598h-1.18v-7.281h4.107v1.006h-2.929v2.275h2.742v1.012h-2.742L139.179,61.598L139.179,61.598
			z"/>
		<path fill="#231F20" d="M149.138,61.598v-7.281h1.189v7.281H149.138z"/>
		<path fill="#231F20" d="M159.847,61.598h-1.459l-3.582-5.805h-0.039l0.023,0.324c0.047,0.615,0.07,1.182,0.07,1.691v3.785h-1.08
			v-7.281h1.443l3.568,5.771h0.029c-0.01-0.074-0.021-0.354-0.039-0.835c-0.021-0.479-0.03-0.854-0.03-1.123v-3.813h1.091v7.283
			h0.004V61.598z"/>
		<path fill="#231F20" d="M167.497,59.618c0,0.646-0.234,1.153-0.703,1.522c-0.468,0.369-1.113,0.553-1.938,0.553
			c-0.822,0-1.498-0.127-2.021-0.383v-1.125c0.332,0.156,0.686,0.276,1.059,0.367c0.373,0.09,0.721,0.135,1.043,0.135
			c0.475,0,0.819-0.09,1.043-0.271c0.228-0.181,0.338-0.42,0.338-0.724c0-0.271-0.104-0.502-0.311-0.69
			c-0.205-0.188-0.631-0.411-1.273-0.672c-0.664-0.271-1.133-0.576-1.402-0.922c-0.271-0.347-0.409-0.763-0.409-1.245
			c0-0.605,0.22-1.086,0.646-1.436c0.434-0.351,1.014-0.521,1.738-0.521c0.697,0,1.391,0.15,2.082,0.458l-0.379,0.972
			c-0.646-0.271-1.226-0.408-1.732-0.408c-0.387,0-0.678,0.084-0.877,0.252c-0.196,0.168-0.299,0.391-0.299,0.666
			c0,0.188,0.039,0.352,0.119,0.483c0.08,0.136,0.211,0.263,0.393,0.382c0.187,0.118,0.515,0.276,0.986,0.473
			c0.535,0.225,0.928,0.433,1.176,0.623c0.25,0.193,0.435,0.41,0.551,0.652C167.438,59.003,167.497,59.29,167.497,59.618z"/>
		<path fill="#231F20" d="M170.437,61.598v-7.281h1.189v7.281H170.437z"/>
		<path fill="#231F20" d="M178.058,57.646h2.68v3.655c-0.438,0.144-0.856,0.242-1.264,0.304c-0.402,0.061-0.839,0.09-1.307,0.09
			c-1.104,0-1.953-0.325-2.551-0.979c-0.598-0.651-0.896-1.571-0.896-2.762c0-1.173,0.338-2.091,1.012-2.752
			c0.674-0.662,1.604-0.993,2.785-0.993c0.76,0,1.479,0.146,2.16,0.438l-0.418,0.99c-0.592-0.271-1.182-0.408-1.773-0.408
			c-0.774,0-1.391,0.244-1.842,0.731s-0.678,1.155-0.678,2.002c0,0.89,0.203,1.565,0.609,2.028c0.406,0.465,0.992,0.695,1.756,0.695
			c0.385,0,0.797-0.047,1.234-0.146v-1.878h-1.508V57.646L178.058,57.646z"/>
		<path fill="#231F20" d="M189.757,61.598h-1.195v-3.283h-3.354v3.283h-1.188v-7.281h1.188v2.979h3.354v-2.979h1.195V61.598z"/>
		<path fill="#231F20" d="M195.72,61.598h-1.189v-6.263h-2.143v-1.021h5.475v1.021h-2.143V61.598z"/>
	</g>
	<rect x="215.825" y="54.314" fill="#0071A5" width="31.119" height="7.281"/>
</g>
</svg>
